<?xml version="1.0" encoding="UTF-8"?> <!-- Generator: Adobe Illustrator 24.0.0, SVG Export Plug-In . SVG Version: 6.00 Build 0) --> <svg xmlns="http://www.w3.org/2000/svg" xmlns:xlink="http://www.w3.org/1999/xlink" id="Layer_1" x="0px" y="0px" viewBox="0 0 474 121" style="enable-background:new 0 0 474 121;" xml:space="preserve"> <style type="text/css"> .st0{fill:#FFFFFF;} .st1{fill:url(#XMLID_2_);} .st2{fill:url(#XMLID_3_);} .st3{fill:url(#XMLID_4_);} .st4{fill:url(#XMLID_5_);} .st5{fill:url(#XMLID_6_);} .st6{fill:url(#XMLID_7_);} .st7{fill:url(#XMLID_8_);} .st8{fill:url(#XMLID_9_);} .st9{fill:url(#XMLID_10_);} .st10{fill:url(#XMLID_11_);} .st11{fill:url(#XMLID_12_);} .st12{fill:url(#XMLID_13_);} </style> <g id="XMLID_1119_"> <g id="XMLID_186_"> <path id="XMLID_210_" class="st0" d="M115.4,47.1h2.7v24.4h10.4V74h-13.1V47.1z"></path> <path id="XMLID_208_" class="st0" d="M167.9,74V47h0.6l18,20.7V47.1h2.7v27h-0.6l-17.8-20.4V74H167.9z"></path> <path id="XMLID_205_" class="st0" d="M203.2,74V47h5.6c4,0,7,0.3,8.8,1c2.6,0.9,4.7,2.5,6.1,4.8c1.5,2.3,2.2,5,2.2,8.1 c0,2.7-0.6,5.1-1.8,7.1c-1.2,2.1-2.7,3.6-4.5,4.5c-1.9,1-4.5,1.5-7.8,1.5H203.2z M205.8,71.5h3.1c3.7,0,6.3-0.2,7.8-0.7 c2-0.7,3.6-1.8,4.8-3.6c1.2-1.7,1.7-3.8,1.7-6.3c0-2.6-0.6-4.8-1.9-6.7c-1.3-1.8-3-3.1-5.3-3.8c-1.7-0.5-4.5-0.8-8.3-0.8h-1.9 L205.8,71.5L205.8,71.5z"></path> <path id="XMLID_203_" class="st0" d="M238.2,47.1h2.7v27h-2.7V47.1z"></path> <path id="XMLID_201_" class="st0" d="M254.7,74V47h0.6l18,20.7V47.1h2.7v27h-0.6l-17.8-20.4V74H254.7z"></path> <path id="XMLID_199_" class="st0" d="M316,51.6l-2.1,2c-1.5-1.5-3.2-2.6-4.9-3.4c-1.8-0.8-3.5-1.1-5.2-1.1c-2.1,0-4.1,0.5-6,1.6 c-1.9,1-3.4,2.4-4.4,4.2c-1.1,1.8-1.6,3.7-1.6,5.6c0,2,0.5,4,1.6,5.8c1.1,1.8,2.6,3.3,4.5,4.3s4,1.6,6.3,1.6c2.8,0,5.1-0.8,7-2.3 c1.9-1.6,3.1-3.6,3.4-6.1H306v-2.6h11.6c0,4.2-1.3,7.5-3.7,9.9c-2.5,2.5-5.7,3.7-9.8,3.7c-5,0-8.9-1.7-11.8-5.1 c-2.2-2.6-3.4-5.6-3.4-9.1c0-2.6,0.6-4.9,1.9-7.1c1.3-2.2,3-3.9,5.3-5.2c2.2-1.2,4.8-1.9,7.6-1.9c2.3,0,4.4,0.4,6.5,1.2 C312.1,48.5,314,49.8,316,51.6z"></path> <polygon id="XMLID_198_" class="st0" points="339.3,57.7 333.6,57.7 333.6,49.1 344,49.1 344,46.3 330.8,46.3 330.8,74.7 333.6,74.7 333.6,60.5 339.3,60.5 "></polygon> <path id="XMLID_195_" class="st0" d="M356.1,47.1h5.4c3,0,5,0.1,6.1,0.4c1.6,0.4,2.9,1.2,3.9,2.4s1.5,2.7,1.5,4.5 c0,1.5-0.3,2.8-1,3.9c-0.7,1.1-1.7,2-3,2.5c-1.3,0.6-3.1,0.9-5.3,0.9l9.7,12.5H370l-9.7-12.5h-1.5V74h-2.7L356.1,47.1L356.1,47.1z M358.8,49.7v9.2h4.6c1.8,0,3.1-0.2,4-0.5s1.5-0.9,2-1.6c0.5-0.8,0.7-1.6,0.7-2.5s-0.2-1.7-0.7-2.5c-0.5-0.7-1.1-1.3-1.9-1.6 s-2.1-0.5-4-0.5L358.8,49.7z"></path> <path id="XMLID_192_" class="st0" d="M399.1,46.4c4.1,0,7.5,1.4,10.3,4.1c2.8,2.7,4.1,6.1,4.1,10.1c0,3.9-1.4,7.3-4.1,10 c-2.7,2.8-6.1,4.1-10,4.1c-4,0-7.4-1.4-10.1-4.1c-2.8-2.7-4.1-6.1-4.1-9.9c0-2.6,0.6-5,1.9-7.2s3-3.9,5.1-5.2 C394.2,47,396.6,46.4,399.1,46.4z M399.2,49c-2,0-3.9,0.5-5.7,1.6c-1.8,1-3.2,2.4-4.2,4.2s-1.5,3.7-1.5,5.9c0,3.2,1.1,5.9,3.3,8.1 c2.2,2.2,4.9,3.3,8,3.3c2.1,0,4-0.5,5.8-1.5s3.2-2.4,4.2-4.2c1-1.8,1.5-3.7,1.5-5.9c0-2.1-0.5-4.1-1.5-5.8s-2.4-3.1-4.2-4.2 C403.2,49.5,401.2,49,399.2,49z"></path> <path id="XMLID_190_" class="st0" d="M426.4,74V47h0.6l18,20.7V47.1h2.7v27H447l-17.8-20.4V74H426.4z"></path> <path id="XMLID_188_" class="st0" d="M459,49.7v-2.6h14.8v2.6h-6V74H465V49.7H459z"></path> <polygon id="XMLID_187_" class="st0" points="143.2,60.5 150.8,60.5 150.8,57.7 143.2,57.7 143.2,49.1 155.5,49.1 155.5,46.3 140.4,46.3 140.4,74.7 155.5,74.7 155.5,71.9 143.2,71.9 "></polygon> </g> </g> <g id="XMLID_1087_"> <linearGradient id="XMLID_2_" gradientUnits="userSpaceOnUse" x1="60.25" y1="142.6975" x2="60.25" y2="21.5231" gradientTransform="matrix(1 0 0 1 0 -22)"> <stop offset="0" style="stop-color:#F3010A"></stop> <stop offset="1" style="stop-color:#FFC500"></stop> </linearGradient> <polygon id="XMLID_1101_" class="st1" points="41.5,102.2 60.3,120.9 79,102.2 "></polygon> <linearGradient id="XMLID_3_" gradientUnits="userSpaceOnUse" x1="60.25" y1="142.303" x2="60.25" y2="21.7324" gradientTransform="matrix(1 0 0 1 0 -22)"> <stop offset="0" style="stop-color:#F3010A"></stop> <stop offset="1" style="stop-color:#FFC500"></stop> </linearGradient> <path id="XMLID_1100_" class="st2" d="M79,100.3L61.5,82.9c-0.8,0.4-1.7,0.3-2.5-0.1l-17.5,17.4L79,100.3L79,100.3z"></path> <linearGradient id="XMLID_4_" gradientUnits="userSpaceOnUse" x1="18.7" y1="142.9192" x2="18.7" y2="20.6023" gradientTransform="matrix(1 0 0 1 0 -22)"> <stop offset="0" style="stop-color:#F3010A"></stop> <stop offset="1" style="stop-color:#FFC500"></stop> </linearGradient> <path id="XMLID_1099_" class="st3" d="M0.2,60.5l18.7,18.9L37.2,61c-0.1-0.1-0.1,0.4-0.2-0.5H0.2z"></path> <linearGradient id="XMLID_5_" gradientUnits="userSpaceOnUse" x1="18.7" y1="143.2534" x2="18.7" y2="21.5946" gradientTransform="matrix(1 0 0 1 0 -22)"> <stop offset="0" style="stop-color:#F3010A"></stop> <stop offset="1" style="stop-color:#FFC500"></stop> </linearGradient> <path id="XMLID_1098_" class="st4" d="M37.2,59L18.9,40.8L0.2,59.6H37C37.1,59.6,37.2,59.1,37.2,59z"></path> <linearGradient id="XMLID_6_" gradientUnits="userSpaceOnUse" x1="39.4" y1="142.7155" x2="39.4" y2="21.039" gradientTransform="matrix(1 0 0 1 0 -22)"> <stop offset="0" style="stop-color:#F3010A"></stop> <stop offset="1" style="stop-color:#FFC500"></stop> </linearGradient> <path id="XMLID_1097_" class="st5" d="M20.9,81.4l18.7,18.8l18.3-18.3c-0.1-0.1-0.1-0.5-0.2-0.5C57.7,81.4,20.9,81.4,20.9,81.4z"></path> <linearGradient id="XMLID_7_" gradientUnits="userSpaceOnUse" x1="39.4" y1="141.7341" x2="39.4" y2="22.1175" gradientTransform="matrix(1 0 0 1 0 -22)"> <stop offset="0" style="stop-color:#F3010A"></stop> <stop offset="1" style="stop-color:#FFC500"></stop> </linearGradient> <path id="XMLID_1096_" class="st6" d="M40.8,62.4c-0.8,0.4-1.7,0.2-2.5-0.2L20.9,79.5h36.8c0,0,0.1-0.1,0.2-0.2L40.8,62.4z"></path> <linearGradient id="XMLID_8_" gradientUnits="userSpaceOnUse" x1="71.0875" y1="142.7083" x2="71.0875" y2="21.5337" gradientTransform="matrix(1 0 0 1 0 -22)"> <stop offset="0" style="stop-color:#F3010A"></stop> <stop offset="1" style="stop-color:#FFC500"></stop> </linearGradient> <path id="XMLID_1095_" class="st7" d="M61.8,36.8c0,0-0.1,0.1,0.1,0.2l18.5-18.3L61.8,0V36.8z"></path> <linearGradient id="XMLID_9_" gradientUnits="userSpaceOnUse" x1="50.4" y1="142.7084" x2="50.4" y2="21.5339" gradientTransform="matrix(1 0 0 1 0 -22)"> <stop offset="0" style="stop-color:#F3010A"></stop> <stop offset="1" style="stop-color:#FFC500"></stop> </linearGradient> <path id="XMLID_1093_" class="st8" d="M59.9,36.8V0l-19,18.7L59.3,37C59.5,36.9,59.9,36.9,59.9,36.8z"></path> <linearGradient id="XMLID_10_" gradientUnits="userSpaceOnUse" x1="49.55" y1="142.7084" x2="49.55" y2="21.5338" gradientTransform="matrix(1 0 0 1 0 -22)"> <stop offset="0" style="stop-color:#F3010A"></stop> <stop offset="1" style="stop-color:#FFC500"></stop> </linearGradient> <path id="XMLID_1092_" class="st9" d="M58.2,38.2L40.9,20.7v36.8c0,0,0,0.1,0.2,0.2l17.1-17.1C57.8,39.9,57.8,38.9,58.2,38.2z"></path> <linearGradient id="XMLID_11_" gradientUnits="userSpaceOnUse" x1="29.6" y1="142.7083" x2="29.6" y2="21.5337" gradientTransform="matrix(1 0 0 1 0 -22)"> <stop offset="0" style="stop-color:#F3010A"></stop> <stop offset="1" style="stop-color:#FFC500"></stop> </linearGradient> <path id="XMLID_1091_" class="st10" d="M39,57.5V20.7L20.2,39.4l18.3,18.3C38.7,57.6,39,57.6,39,57.5z"></path> <linearGradient id="XMLID_12_" gradientUnits="userSpaceOnUse" x1="60.45" y1="142.9593" x2="60.45" y2="20.5615" gradientTransform="matrix(1 0 0 1 0 -22)"> <stop offset="0" style="stop-color:#F3010A"></stop> <stop offset="1" style="stop-color:#FFC500"></stop> </linearGradient> <path id="XMLID_1090_" class="st11" d="M61.5,78.2L79,60.5H42.1c0,0.9-0.1,0.5-0.2,0.6L59,78.2C59.8,77.8,60.7,77.8,61.5,78.2z"></path> <linearGradient id="XMLID_13_" gradientUnits="userSpaceOnUse" x1="60.5" y1="143.7578" x2="60.5" y2="21.1043" gradientTransform="matrix(1 0 0 1 0 -22)"> <stop offset="0" style="stop-color:#F3010A"></stop> <stop offset="1" style="stop-color:#FFC500"></stop> </linearGradient> <path id="XMLID_1088_" class="st12" d="M79,59.6L61.5,41.9c-0.8,0.4-1.7,0.3-2.5-0.1L42,59c0.1,0.1,0.1,0.5,0.2,0.5L79,59.6 L79,59.6z"></path> </g> </svg> 